<?xml version="1.0" standalone="no"?>
<!DOCTYPE svg PUBLIC "-//W3C//DTD SVG 20010904//EN"
 "http://www.w3.org/TR/2001/REC-SVG-20010904/DTD/svg10.dtd">
<svg version="1.0" xmlns="http://www.w3.org/2000/svg"
 width="1166.000000pt" height="1166.000000pt" viewBox="0 0 1166.000000 1166.000000"
 preserveAspectRatio="xMidYMid meet">
<metadata>
Created by potrace 1.11, written by Peter Selinger 2001-2013
</metadata>
<g transform="translate(0.000000,1166.000000) scale(0.100000,-0.100000)"
fill="#000000" stroke="none">
<path d="M5352 8203 c3 -10 418 -1114 923 -2453 504 -1339 922 -2447 927
-2462 l10 -28 654 0 654 0 0 28 c0 15 -426 1131 -947 2479 l-948 2452 -639 1
c-603 0 -638 -1 -634 -17z"/>
<path d="M7542 8203 c3 -10 418 -1114 923 -2453 504 -1339 922 -2447 927
-2462 l10 -28 654 0 654 0 0 28 c0 15 -426 1131 -947 2479 l-948 2452 -639 1
c-603 0 -638 -1 -634 -17z"/>
<path d="M1070 5740 l0 -2470 883 0 c1027 0 1150 6 1477 70 282 56 496 128
745 250 631 310 1048 821 1215 1490 58 231 74 376 74 680 0 356 -23 520 -111
810 -225 738 -796 1270 -1616 1505 -226 64 -430 101 -692 125 -64 6 -501 10
-1042 10 l-933 0 0 -2470z m1985 1296 c599 -114 981 -458 1101 -991 21 -96 30
-382 15 -498 -17 -124 -63 -283 -115 -392 -113 -237 -312 -434 -561 -555 -261
-127 -500 -170 -942 -170 l-233 0 0 1316 0 1316 323 -5 c247 -3 343 -8 412
-21z"/>
</g>
</svg>
